SplineFontDB: 3.0
FontName: LintwToy
FullName: LintwToy
FamilyName: LintwToy
Weight: Book
Copyright: nokoyama
Version: 1.10
ItalicAngle: 0
UnderlinePosition: -120
UnderlineWidth: 48
Ascent: 896
Descent: 128
InvalidEm: 0
sfntRevision: 0x00010000
LayerCount: 2
Layer: 0 1 "+gMyXYgAA" 1
Layer: 1 1 "+Uk2XYgAA" 0
XUID: [1021 782 -276623249 16448]
StyleMap: 0x0040
FSType: 8
OS2Version: 1
OS2_WeightWidthSlopeOnly: 0
OS2_UseTypoMetrics: 0
CreationTime: -2082844800
ModificationTime: 1483407509
PfmFamily: 17
TTFWeight: 400
TTFWidth: 5
LineGap: 0
VLineGap: 0
Panose: 2 0 6 0 0 0 0 0 0 0
OS2TypoAscent: 896
OS2TypoAOffset: 0
OS2TypoDescent: -128
OS2TypoDOffset: 0
OS2TypoLinegap: 0
OS2WinAscent: 896
OS2WinAOffset: 0
OS2WinDescent: 128
OS2WinDOffset: 0
HheadAscent: 896
HheadAOffset: 0
HheadDescent: -128
HheadDOffset: 0
OS2SubXSize: 512
OS2SubYSize: 512
OS2SubXOff: 0
OS2SubYOff: 368
OS2SupXSize: 512
OS2SupYSize: 512
OS2SupXOff: 0
OS2SupYOff: 440
OS2StrikeYSize: 52
OS2StrikeYPos: 264
OS2Vendor: 'Musa'
OS2CodePages: 4002009f.dfd70000
OS2UnicodeRanges: 00000005.08030000.00000010.00000000
MarkAttachClasses: 1
DEI: 91125
ShortTable: maxp 16
  1
  0
  119
  50
  4
  0
  0
  1
  0
  0
  20
  0
  6144
  0
  0
  0
EndShort
LangName: 1033 "" "" "regular" "LintwToy" "" "Version 1.00" "" "LintwToy"
GaspTable: 2 8 2 65535 3 0
Encoding: UnicodeBmp
Compacted: 1
UnicodeInterp: none
NameList: AGL For New Fonts
DisplaySize: -48
AntiAlias: 1
FitToEm: 0
WinInfo: 0 27 9
BeginPrivate: 0
EndPrivate
BeginChars: 65537 119

StartChar: .notdef
Encoding: 65536 -1 0
Width: 1024
Flags: W
LayerCount: 2
Fore
SplineSet
402 258 m 1,0,-1
 402 478 l 1,1,-1
 622 478 l 1,2,-1
 622 258 l 1,3,-1
 402 258 l 1,0,-1
EndSplineSet
EndChar

StartChar: zero
Encoding: 48 48 2
Width: 512
Flags: W
LayerCount: 2
Fore
SplineSet
256 768 m 0,0,1
 336 767 336 767 391.5 711.5 c 128,-1,2
 447 656 447 656 448 576 c 2,3,-1
 448 128 l 2,4,5
 447 48 447 48 391.5 -7.5 c 128,-1,6
 336 -63 336 -63 256 -64 c 0,7,8
 176 -63 176 -63 120.5 -7.5 c 128,-1,9
 65 48 65 48 64 128 c 2,10,-1
 64 576 l 2,11,12
 65 656 65 656 120.5 711.5 c 128,-1,13
 176 767 176 767 256 768 c 0,0,1
EndSplineSet
EndChar

StartChar: one
Encoding: 49 49 3
Width: 512
Flags: W
LayerCount: 2
Fore
SplineSet
64 768 m 1,0,-1
 229 768 l 1,1,-1
 448 -64 l 1,2,-1
 282 -64 l 1,3,-1
 64 768 l 1,0,-1
EndSplineSet
EndChar

StartChar: two
Encoding: 50 50 4
Width: 512
Flags: W
LayerCount: 2
Fore
SplineSet
64 768 m 1,0,-1
 448 768 l 1,1,-1
 339 351 l 1,2,-1
 448 -64 l 1,3,-1
 282 -64 l 1,4,-1
 256 36 l 1,5,-1
 230 -64 l 1,6,-1
 64 -64 l 1,7,-1
 173 351 l 1,8,-1
 64 768 l 1,0,-1
EndSplineSet
EndChar

StartChar: three
Encoding: 51 51 5
Width: 512
Flags: W
LayerCount: 2
Fore
SplineSet
64 768 m 1,0,-1
 229 768 l 1,1,-1
 256 667 l 1,2,-1
 282 768 l 1,3,-1
 448 768 l 1,4,-1
 338 351 l 1,5,-1
 447 -64 l 1,6,-1
 282 -64 l 1,7,-1
 256 36 l 1,8,-1
 229 -64 l 1,9,-1
 64 -64 l 1,10,-1
 64 768 l 1,0,-1
EndSplineSet
EndChar

StartChar: four
Encoding: 52 52 6
Width: 512
Flags: W
LayerCount: 2
Fore
SplineSet
64 768 m 1,0,-1
 224 768 l 1,1,-1
 224 545 l 1,2,-1
 283 768 l 1,3,-1
 448 768 l 1,4,-1
 448 -64 l 1,5,-1
 288 -64 l 1,6,-1
 288 158 l 1,7,-1
 230 -64 l 1,8,-1
 224 -64 l 1,9,-1
 64 -64 l 1,10,-1
 64 768 l 1,0,-1
EndSplineSet
EndChar

StartChar: five
Encoding: 53 53 7
Width: 512
Flags: W
LayerCount: 2
Fore
SplineSet
256 768 m 2,0,-1
 448 768 l 1,1,-1
 448 576 l 1,2,-1
 448 512 l 1,3,-1
 448 320 l 1,4,-1
 448 128 l 1,5,-1
 448 -64 l 1,6,-1
 256 -64 l 2,7,8
 176 -63 176 -63 120.5 -7.5 c 128,-1,9
 65 48 65 48 64 128 c 2,10,-1
 64 576 l 2,11,12
 65 656 65 656 120.5 711.5 c 128,-1,13
 176 767 176 767 256 768 c 2,0,-1
EndSplineSet
EndChar

StartChar: six
Encoding: 54 54 8
Width: 512
Flags: W
LayerCount: 2
Fore
SplineSet
282 768 m 1,0,-1
 448 768 l 1,1,-1
 338 351 l 1,2,-1
 447 -64 l 1,3,-1
 282 -64 l 1,4,-1
 256 36 l 1,5,-1
 229 -64 l 1,6,-1
 64 -64 l 1,7,-1
 282 768 l 1,0,-1
EndSplineSet
EndChar

StartChar: seven
Encoding: 55 55 9
Width: 512
Flags: W
LayerCount: 2
Fore
SplineSet
64 768 m 1,0,-1
 229 768 l 1,1,-1
 256 667 l 1,2,-1
 282 768 l 1,3,-1
 448 768 l 1,4,-1
 338 351 l 1,5,-1
 447 -64 l 1,6,-1
 64 -64 l 1,7,-1
 173 351 l 1,8,-1
 64 768 l 1,0,-1
EndSplineSet
EndChar

StartChar: uni3041
Encoding: 12353 12353 40
Width: 1024
Flags: W
LayerCount: 2
Fore
SplineSet
928 768 m 1,0,-1
 928 576 l 1,1,-1
 928 128 l 1,2,-1
 928 -64 l 1,3,-1
 736 -64 l 1,4,-1
 384 -64 l 1,5,-1
 288 -64 l 1,6,-1
 96 -64 l 1,7,-1
 96 128 l 1,8,-1
 288 128 l 1,9,-1
 288 192 l 1,10,-1
 192 192 l 1,11,-1
 192 320 l 1,12,-1
 288 320 l 1,13,-1
 288 384 l 1,14,-1
 192 384 l 1,15,-1
 192 512 l 1,16,-1
 288 512 l 1,17,-1
 288 576 l 1,18,-1
 96 576 l 1,19,-1
 96 768 l 1,20,-1
 288 768 l 1,21,-1
 384 768 l 1,22,-1
 736 768 l 1,23,-1
 928 768 l 1,24,-1
 928 768 l 1,0,-1
EndSplineSet
EndChar

StartChar: uni3042
Encoding: 12354 12354 41
Width: 1024
Flags: W
LayerCount: 2
Fore
SplineSet
512 768 m 1,0,-1
 993 -64 l 1,1,-1
 736 -64 l 1,2,-1
 736 0 l 2,3,4
 735 94 735 94 670.5 158.5 c 128,-1,5
 606 223 606 223 512 224 c 0,6,7
 418 223 418 223 353.5 158.5 c 128,-1,8
 289 94 289 94 288 0 c 2,9,-1
 288 -64 l 1,10,-1
 32 -64 l 1,11,-1
 512 768 l 1,0,-1
512 128 m 0,12,13
 566 127 566 127 602.5 90.5 c 128,-1,14
 639 54 639 54 640 0 c 0,15,16
 639 -54 639 -54 602.5 -90.5 c 128,-1,17
 566 -127 566 -127 512 -128 c 0,18,19
 458 -127 458 -127 421.5 -90.5 c 128,-1,20
 385 -54 385 -54 384 0 c 0,21,22
 385 54 385 54 421.5 90.5 c 128,-1,23
 458 127 458 127 512 128 c 0,12,13
EndSplineSet
EndChar

StartChar: uni3044
Encoding: 12356 12356 42
Width: 1024
Flags: W
LayerCount: 2
Fore
SplineSet
128 512 m 1,0,-1
 896 512 l 1,1,-1
 896 320 l 1,2,-1
 576 320 l 1,3,-1
 800 -64 l 1,4,-1
 224 -64 l 1,5,-1
 448 320 l 1,6,-1
 128 320 l 1,7,-1
 128 512 l 1,0,-1
256 704 m 256,8,9
 256 757 256 757 293.5 794.5 c 128,-1,10
 331 832 331 832 384 832 c 256,11,12
 437 832 437 832 474.5 794.5 c 128,-1,13
 512 757 512 757 512 704 c 256,14,15
 512 651 512 651 474.5 613.5 c 128,-1,16
 437 576 437 576 384 576 c 256,17,18
 331 576 331 576 293.5 613.5 c 128,-1,19
 256 651 256 651 256 704 c 256,8,9
EndSplineSet
EndChar

StartChar: uni3046
Encoding: 12358 12358 43
Width: 1024
Flags: W
LayerCount: 2
Fore
SplineSet
896 512 m 1,0,-1
 896 320 l 1,1,-1
 576 320 l 1,2,-1
 800 -64 l 1,3,-1
 224 -64 l 1,4,-1
 448 320 l 1,5,-1
 128 320 l 1,6,-1
 128 512 l 1,7,-1
 896 512 l 1,0,-1
512 704 m 256,8,9
 512 757 512 757 549.5 794.5 c 128,-1,10
 587 832 587 832 640 832 c 256,11,12
 693 832 693 832 730.5 794.5 c 128,-1,13
 768 757 768 757 768 704 c 256,14,15
 768 651 768 651 730.5 613.5 c 128,-1,16
 693 576 693 576 640 576 c 256,17,18
 587 576 587 576 549.5 613.5 c 128,-1,19
 512 651 512 651 512 704 c 256,8,9
EndSplineSet
EndChar

StartChar: uni3048
Encoding: 12360 12360 44
Width: 1024
Flags: W
LayerCount: 2
Fore
SplineSet
96 768 m 1,0,-1
 96 768 l 1,1,-1
 288 768 l 1,2,-1
 640 768 l 1,3,-1
 736 768 l 1,4,-1
 928 768 l 1,5,-1
 928 576 l 1,6,-1
 736 576 l 1,7,-1
 736 512 l 1,8,-1
 832 512 l 1,9,-1
 832 384 l 1,10,-1
 736 384 l 1,11,-1
 736 320 l 1,12,-1
 832 320 l 1,13,-1
 832 192 l 1,14,-1
 736 192 l 1,15,-1
 736 128 l 1,16,-1
 928 128 l 1,17,-1
 928 -64 l 1,18,-1
 736 -64 l 1,19,-1
 640 -64 l 1,20,-1
 288 -64 l 1,21,-1
 96 -64 l 1,22,-1
 96 128 l 1,23,-1
 96 576 l 1,24,-1
 96 768 l 1,0,-1
EndSplineSet
EndChar

StartChar: uni304A
Encoding: 12362 12362 45
Width: 1024
Flags: W
LayerCount: 2
Fore
SplineSet
512 768 m 0,0,1
 686 766 686 766 806 646 c 128,-1,2
 926 526 926 526 928 352 c 0,3,4
 926 178 926 178 806 58 c 128,-1,5
 686 -62 686 -62 512 -64 c 0,6,7
 338 -62 338 -62 218 58 c 128,-1,8
 98 178 98 178 96 352 c 0,9,10
 98 526 98 526 218 646 c 128,-1,11
 338 766 338 766 512 768 c 0,0,1
512 640 m 256,12,13
 465 640 465 640 432.5 607.5 c 128,-1,14
 400 575 400 575 400 528 c 256,15,16
 400 481 400 481 432.5 448.5 c 128,-1,17
 465 416 465 416 512 416 c 256,18,19
 559 416 559 416 591.5 448.5 c 128,-1,20
 624 481 624 481 624 528 c 256,21,22
 624 575 624 575 591.5 607.5 c 128,-1,23
 559 640 559 640 512 640 c 256,12,13
512 288 m 256,24,25
 465 288 465 288 432.5 255.5 c 128,-1,26
 400 223 400 223 400 176 c 256,27,28
 400 129 400 129 432.5 96.5 c 128,-1,29
 465 64 465 64 512 64 c 256,30,31
 559 64 559 64 591.5 96.5 c 128,-1,32
 624 129 624 129 624 176 c 256,33,34
 624 223 624 223 591.5 255.5 c 128,-1,35
 559 288 559 288 512 288 c 256,24,25
EndSplineSet
EndChar

StartChar: uni304B
Encoding: 12363 12363 46
Width: 1024
Flags: W
LayerCount: 2
Fore
SplineSet
96 768 m 1,0,-1
 928 768 l 1,1,-1
 928 448 l 1,2,-1
 928 448 l 1,3,-1
 928 256 l 1,4,-1
 416 256 l 1,5,-1
 416 192 l 1,6,7
 422 134 422 134 480 128 c 1,8,-1
 928 128 l 1,9,-1
 928 -64 l 1,10,-1
 480 -64 l 2,11,12
 373 -63 373 -63 299 11 c 128,-1,13
 225 85 225 85 224 192 c 2,14,-1
 224 256 l 1,15,-1
 96 256 l 1,16,-1
 96 448 l 1,17,-1
 224 448 l 1,18,-1
 224 576 l 1,19,-1
 96 576 l 1,20,-1
 96 768 l 1,0,-1
EndSplineSet
EndChar

StartChar: uni304C
Encoding: 12364 12364 47
Width: 1024
Flags: W
LayerCount: 2
Fore
SplineSet
96 768 m 1,0,-1
 288 768 l 1,1,-1
 288 400 l 1,2,-1
 656 768 l 1,3,-1
 928 768 l 1,4,-1
 608 448 l 1,5,-1
 928 448 l 1,6,-1
 928 128 l 1,7,-1
 928 -64 l 1,8,-1
 416 -64 l 1,9,-1
 416 128 l 1,10,-1
 544 128 l 1,11,-1
 544 256 l 1,12,-1
 416 256 l 1,13,-1
 96 -64 l 1,14,-1
 96 768 l 1,0,-1
EndSplineSet
EndChar

StartChar: uni304D
Encoding: 12365 12365 48
Width: 1024
Flags: W
LayerCount: 2
Fore
SplineSet
96 768 m 1,0,-1
 96 768 l 1,1,-1
 288 768 l 1,2,-1
 288 512 l 1,3,-1
 416 512 l 1,4,-1
 416 768 l 1,5,-1
 608 768 l 1,6,-1
 608 512 l 1,7,-1
 736 512 l 1,8,-1
 736 768 l 1,9,-1
 928 768 l 1,10,-1
 928 512 l 1,11,-1
 928 448 l 1,12,-1
 928 -64 l 1,13,-1
 96 -64 l 1,14,-1
 96 448 l 1,15,-1
 96 512 l 1,16,-1
 96 768 l 1,0,-1
EndSplineSet
EndChar

StartChar: uni304E
Encoding: 12366 12366 49
Width: 1024
Flags: W
LayerCount: 2
Fore
SplineSet
96 544 m 1,0,-1
 320 544 l 1,1,-1
 320 768 l 1,2,-1
 704 768 l 1,3,-1
 704 544 l 1,4,-1
 928 544 l 1,5,-1
 928 160 l 1,6,-1
 704 160 l 1,7,-1
 704 -64 l 1,8,-1
 320 -64 l 1,9,-1
 320 160 l 1,10,-1
 96 160 l 1,11,-1
 96 544 l 1,0,-1
384 352 m 256,12,13
 384 299 384 299 421.5 261.5 c 128,-1,14
 459 224 459 224 512 224 c 256,15,16
 565 224 565 224 602.5 261.5 c 128,-1,17
 640 299 640 299 640 352 c 256,18,19
 640 405 640 405 602.5 442.5 c 128,-1,20
 565 480 565 480 512 480 c 256,21,22
 459 480 459 480 421.5 442.5 c 128,-1,23
 384 405 384 405 384 352 c 256,12,13
EndSplineSet
EndChar

StartChar: uni304F
Encoding: 12367 12367 50
Width: 1024
Flags: W
LayerCount: 2
Fore
SplineSet
512 768 m 2,0,-1
 928 768 l 1,1,-1
 928 576 l 1,2,-1
 512 576 l 2,3,4
 418 575 418 575 354 511 c 2,5,-1
 353 510 l 1,6,7
 368 512 368 512 384 512 c 0,8,9
 504 511 504 511 587.5 427.5 c 128,-1,10
 671 344 671 344 672 224 c 0,11,12
 672 173 672 173 656 128 c 1,13,-1
 928 128 l 1,14,-1
 928 -64 l 1,15,-1
 384 -64 l 1,16,-1
 96 -64 l 1,17,-1
 96 224 l 1,18,-1
 96 352 l 2,19,20
 98 526 98 526 218 646 c 128,-1,21
 338 766 338 766 512 768 c 2,0,-1
384 320 m 256,22,23
 344 320 344 320 316 292 c 128,-1,24
 288 264 288 264 288 224 c 2,25,-1
 288 128 l 1,26,-1
 384 128 l 2,27,28
 424 128 424 128 452 156 c 256,29,30
 480 184 480 184 480 224 c 256,31,32
 480 264 480 264 452 292 c 128,-1,33
 424 320 424 320 384 320 c 256,22,23
704 352 m 256,34,35
 704 405 704 405 741.5 442.5 c 128,-1,36
 779 480 779 480 832 480 c 256,37,38
 885 480 885 480 922.5 442.5 c 128,-1,39
 960 405 960 405 960 352 c 256,40,41
 960 299 960 299 922.5 261.5 c 128,-1,42
 885 224 885 224 832 224 c 256,43,44
 779 224 779 224 741.5 261.5 c 128,-1,45
 704 299 704 299 704 352 c 256,34,35
EndSplineSet
EndChar

StartChar: uni3050
Encoding: 12368 12368 51
Width: 1024
Flags: W
LayerCount: 2
Fore
SplineSet
96 768 m 1,0,-1
 288 768 l 1,1,-1
 288 544 l 1,2,-1
 288 160 l 1,3,-1
 288 -64 l 1,4,-1
 96 -64 l 1,5,-1
 96 768 l 1,0,-1
288 544 m 0,6,7
 289 638 289 638 353.5 702.5 c 128,-1,8
 418 767 418 767 512 768 c 0,9,10
 606 767 606 767 670.5 702.5 c 128,-1,11
 735 638 735 638 736 544 c 0,12,13
 735 467 735 467 689 407 c 128,-1,14
 643 347 643 347 569 327 c 1,15,-1
 736 160 l 1,16,-1
 512 -64 l 1,17,-1
 288 160 l 1,18,-1
 455 327 l 1,19,20
 381 347 381 347 335 407 c 128,-1,21
 289 467 289 467 288 544 c 0,6,7
736 544 m 1,22,-1
 736 768 l 1,23,-1
 928 768 l 1,24,-1
 928 -64 l 1,25,-1
 736 -64 l 1,26,-1
 736 160 l 1,27,-1
 736 544 l 1,22,-1
448 544 m 256,28,29
 448 517 448 517 466.5 498.5 c 128,-1,30
 485 480 485 480 512 480 c 256,31,32
 539 480 539 480 557.5 498.5 c 128,-1,33
 576 517 576 517 576 544 c 256,34,35
 576 571 576 571 557.5 589.5 c 128,-1,36
 539 608 539 608 512 608 c 256,37,38
 485 608 485 608 466.5 589.5 c 128,-1,39
 448 571 448 571 448 544 c 256,28,29
EndSplineSet
EndChar

StartChar: uni3051
Encoding: 12369 12369 52
Width: 1024
Flags: W
LayerCount: 2
Fore
SplineSet
96 -64 m 1,0,-1
 96 768 l 1,1,-1
 928 768 l 1,2,-1
 928 192 l 1,3,-1
 608 192 l 1,4,-1
 608 192 l 1,5,6
 608 -65 608 -65 352 -64 c 2,7,-1
 96 -64 l 1,0,-1
672 0 m 256,8,9
 672 53 672 53 709.5 90.5 c 128,-1,10
 747 128 747 128 800 128 c 256,11,12
 853 128 853 128 890.5 90.5 c 128,-1,13
 928 53 928 53 928 0 c 256,14,15
 928 -53 928 -53 890.5 -90.5 c 128,-1,16
 853 -128 853 -128 800 -128 c 256,17,18
 747 -128 747 -128 709.5 -90.5 c 128,-1,19
 672 -53 672 -53 672 0 c 256,8,9
EndSplineSet
EndChar

StartChar: uni3052
Encoding: 12370 12370 53
Width: 1024
Flags: W
LayerCount: 2
Fore
SplineSet
512 768 m 0,0,1
 686 766 686 766 806 646 c 128,-1,2
 926 526 926 526 928 352 c 0,3,4
 926 178 926 178 806 58 c 128,-1,5
 686 -62 686 -62 512 -64 c 0,6,7
 338 -62 338 -62 218 58 c 128,-1,8
 98 178 98 178 96 352 c 0,9,10
 98 526 98 526 218 646 c 128,-1,11
 338 766 338 766 512 768 c 0,0,1
332 568 m 0,12,13
 268 566 268 566 235 512 c 0,14,15
 212 471 212 471 224 427 c 128,-1,16
 236 383 236 383 276 359 c 0,17,18
 317 336 317 336 361 348 c 128,-1,19
 405 360 405 360 429 400 c 0,20,21
 452 441 452 441 440 485 c 128,-1,22
 428 529 428 529 388 553 c 0,23,24
 362 568 362 568 332 568 c 0,12,13
692 568 m 0,25,26
 662 568 662 568 636 553 c 0,27,28
 596 529 596 529 584 485 c 128,-1,29
 572 441 572 441 595 400 c 0,30,31
 619 360 619 360 663 348 c 128,-1,32
 707 336 707 336 748 359 c 0,33,34
 788 383 788 383 800 427 c 128,-1,35
 812 471 812 471 789 512 c 0,36,37
 756 566 756 566 692 568 c 0,25,26
512 256 m 256,38,39
 465 256 465 256 432.5 223.5 c 128,-1,40
 400 191 400 191 400 144 c 256,41,42
 400 97 400 97 432.5 64.5 c 128,-1,43
 465 32 465 32 512 32 c 256,44,45
 559 32 559 32 591.5 64.5 c 128,-1,46
 624 97 624 97 624 144 c 256,47,48
 624 191 624 191 591.5 223.5 c 128,-1,49
 559 256 559 256 512 256 c 256,38,39
EndSplineSet
EndChar

StartChar: uni3053
Encoding: 12371 12371 54
Width: 1024
Flags: W
LayerCount: 2
Fore
SplineSet
96 256 m 1,0,-1
 96 448 l 1,1,-1
 224 448 l 1,2,-1
 224 576 l 1,3,-1
 96 576 l 1,4,-1
 96 768 l 1,5,-1
 928 768 l 1,6,-1
 928 576 l 1,7,-1
 800 576 l 1,8,-1
 800 448 l 1,9,-1
 928 448 l 1,10,-1
 928 256 l 1,11,-1
 800 256 l 1,12,-1
 800 128 l 1,13,-1
 928 128 l 1,14,-1
 928 -64 l 1,15,-1
 96 -64 l 1,16,-1
 96 128 l 1,17,-1
 224 128 l 1,18,-1
 224 256 l 1,19,-1
 96 256 l 1,0,-1
EndSplineSet
EndChar

StartChar: uni3054
Encoding: 12372 12372 55
Width: 1024
Flags: W
LayerCount: 2
Fore
SplineSet
96 768 m 1,0,-1
 928 768 l 1,1,-1
 928 576 l 1,2,-1
 800 576 l 1,3,-1
 800 448 l 1,4,-1
 928 448 l 1,5,-1
 928 256 l 1,6,-1
 800 256 l 1,7,-1
 800 192 l 1,8,9
 806 134 806 134 864 128 c 1,10,-1
 928 128 l 1,11,-1
 928 -56 l 1,12,-1
 928 -64 l 1,13,-1
 864 -64 l 2,14,15
 757 -63 757 -63 683 11 c 128,-1,16
 609 85 609 85 608 192 c 2,17,-1
 608 256 l 1,18,-1
 96 256 l 1,19,-1
 96 448 l 1,20,-1
 608 448 l 1,21,-1
 608 576 l 1,22,-1
 96 576 l 1,23,-1
 96 768 l 1,0,-1
EndSplineSet
EndChar

StartChar: uni3055
Encoding: 12373 12373 56
Width: 1024
Flags: W
LayerCount: 2
Fore
SplineSet
32 -64 m 1,0,-1
 512 768 l 1,1,-1
 993 -64 l 1,2,-1
 32 -64 l 1,0,-1
512 96 m 0,3,4
 566 97 566 97 602.5 133.5 c 128,-1,5
 639 170 639 170 640 224 c 0,6,7
 639 278 639 278 602.5 314.5 c 128,-1,8
 566 351 566 351 512 352 c 0,9,10
 458 351 458 351 421.5 314.5 c 128,-1,11
 385 278 385 278 384 224 c 0,12,13
 385 170 385 170 421.5 133.5 c 128,-1,14
 458 97 458 97 512 96 c 0,3,4
EndSplineSet
EndChar

StartChar: uni3056
Encoding: 12374 12374 57
Width: 1024
Flags: W
LayerCount: 2
Fore
SplineSet
96 768 m 1,0,-1
 256 768 l 1,1,-1
 256 -64 l 1,2,-1
 96 -64 l 1,3,-1
 96 768 l 1,0,-1
320 768 m 1,4,-1
 485 768 l 1,5,-1
 544 545 l 1,6,-1
 544 768 l 1,7,-1
 704 768 l 1,8,-1
 704 -63 l 1,9,-1
 704 -64 l 1,10,-1
 539 -64 l 1,11,-1
 480 159 l 1,12,-1
 480 -64 l 1,13,-1
 320 -64 l 1,14,-1
 320 768 l 1,4,-1
768 768 m 1,15,-1
 928 768 l 1,16,-1
 928 -64 l 1,17,-1
 768 -64 l 1,18,-1
 768 768 l 1,15,-1
EndSplineSet
EndChar

StartChar: uni3057
Encoding: 12375 12375 58
Width: 1024
Flags: W
LayerCount: 2
Fore
SplineSet
96 320 m 1,0,-1
 96 512 l 1,1,-1
 608 512 l 1,2,-1
 608 576 l 1,3,-1
 96 576 l 1,4,-1
 96 768 l 1,5,-1
 928 768 l 1,6,-1
 928 576 l 1,7,-1
 800 576 l 1,8,-1
 800 512 l 1,9,-1
 928 512 l 1,10,-1
 928 320 l 1,11,-1
 800 320 l 1,12,-1
 800 -64 l 1,13,-1
 608 -64 l 1,14,-1
 608 320 l 1,15,-1
 480 320 l 1,16,-1
 480 128 l 2,17,18
 480 49 480 49 423.5 -7.5 c 128,-1,19
 367 -64 367 -64 288 -64 c 256,20,21
 209 -64 209 -64 152.5 -7.5 c 128,-1,22
 96 49 96 49 96 128 c 2,23,-1
 96 320 l 1,24,-1
 96 320 l 1,0,-1
EndSplineSet
EndChar

StartChar: uni3058
Encoding: 12376 12376 59
Width: 1024
Flags: W
LayerCount: 2
Fore
SplineSet
512 768 m 0,0,1
 590 768 590 768 662 740 c 1,2,-1
 682 768 l 1,3,-1
 916 768 l 1,4,-1
 820 631 l 1,5,6
 926 512 926 512 928 352 c 0,7,8
 927 231 927 231 863 128 c 1,9,-1
 928 128 l 1,10,-1
 928 -64 l 1,11,-1
 96 -64 l 1,12,-1
 197 80 l 1,13,14
 97 198 97 198 96 352 c 0,15,16
 98 526 98 526 218 646 c 128,-1,17
 338 766 338 766 512 768 c 0,0,1
512 576 m 0,18,19
 418 575 418 575 353.5 510.5 c 128,-1,20
 289 446 289 446 288 352 c 0,21,22
 289 296 289 296 314 246 c 1,23,-1
 545 574 l 1,24,25
 529 576 529 576 512 576 c 0,18,19
704 467 m 1,26,-1
 469 132 l 1,27,28
 490 128 490 128 512 128 c 0,29,30
 606 129 606 129 670.5 193.5 c 128,-1,31
 735 258 735 258 736 352 c 0,32,33
 735 414 735 414 704 467 c 1,26,-1
EndSplineSet
EndChar

StartChar: uni3059
Encoding: 12377 12377 60
Width: 1024
Flags: W
LayerCount: 2
Fore
SplineSet
512 800 m 1,0,-1
 676 545 l 1,1,-1
 968 468 l 1,2,-1
 777 234 l 1,3,-1
 794 -68 l 1,4,-1
 512 42 l 1,5,-1
 230 -68 l 1,6,-1
 247 234 l 1,7,-1
 55 468 l 1,8,-1
 348 545 l 1,9,-1
 512 800 l 1,0,-1
96 704 m 256,10,11
 96 757 96 757 133.5 794.5 c 128,-1,12
 171 832 171 832 224 832 c 256,13,14
 277 832 277 832 314.5 794.5 c 128,-1,15
 352 757 352 757 352 704 c 256,16,17
 352 651 352 651 314.5 613.5 c 128,-1,18
 277 576 277 576 224 576 c 256,19,20
 171 576 171 576 133.5 613.5 c 128,-1,21
 96 651 96 651 96 704 c 256,10,11
672 704 m 256,22,23
 672 757 672 757 709.5 794.5 c 128,-1,24
 747 832 747 832 800 832 c 256,25,26
 853 832 853 832 890.5 794.5 c 128,-1,27
 928 757 928 757 928 704 c 256,28,29
 928 651 928 651 890.5 613.5 c 128,-1,30
 853 576 853 576 800 576 c 256,31,32
 747 576 747 576 709.5 613.5 c 128,-1,33
 672 651 672 651 672 704 c 256,22,23
EndSplineSet
EndChar

StartChar: uni305A
Encoding: 12378 12378 61
Width: 1024
Flags: W
LayerCount: 2
Fore
SplineSet
512 -64 m 1,0,-1
 32 768 l 1,1,-1
 288 768 l 1,2,-1
 288 704 l 2,3,4
 289 610 289 610 353.5 545.5 c 128,-1,5
 418 481 418 481 512 480 c 0,6,7
 606 481 606 481 670.5 545.5 c 128,-1,8
 735 610 735 610 736 704 c 2,9,-1
 736 768 l 1,10,-1
 993 768 l 1,11,-1
 512 -64 l 1,0,-1
EndSplineSet
EndChar

StartChar: uni305B
Encoding: 12379 12379 62
Width: 1024
Flags: W
LayerCount: 2
Fore
SplineSet
96 768 m 1,0,-1
 288 768 l 1,1,-1
 288 -64 l 1,2,-1
 96 -64 l 1,3,-1
 96 768 l 1,0,-1
640 832 m 0,4,5
 694 831 694 831 730.5 794.5 c 128,-1,6
 767 758 767 758 768 704 c 0,7,8
 767 650 767 650 730.5 613.5 c 128,-1,9
 694 577 694 577 640 576 c 0,10,11
 586 577 586 577 549.5 613.5 c 128,-1,12
 513 650 513 650 512 704 c 0,13,14
 513 758 513 758 549.5 794.5 c 128,-1,15
 586 831 586 831 640 832 c 0,4,5
640 512 m 1,16,-1
 928 224 l 1,17,-1
 640 -64 l 1,18,-1
 352 224 l 1,19,-1
 640 512 l 1,16,-1
EndSplineSet
EndChar

StartChar: uni305C
Encoding: 12380 12380 63
Width: 1024
Flags: W
LayerCount: 2
Fore
SplineSet
608 -64 m 1,0,-1
 608 576 l 1,1,-1
 416 576 l 1,2,-1
 416 -64 l 1,3,-1
 224 -64 l 1,4,-1
 224 576 l 1,5,-1
 96 576 l 1,6,-1
 96 768 l 1,7,-1
 928 768 l 1,8,-1
 928 576 l 1,9,-1
 800 576 l 1,10,-1
 800 -64 l 1,11,-1
 608 -64 l 1,0,-1
EndSplineSet
EndChar

StartChar: uni305D
Encoding: 12381 12381 64
Width: 1024
Flags: W
LayerCount: 2
Fore
SplineSet
512 768 m 0,0,1
 686 766 686 766 806 646 c 128,-1,2
 926 526 926 526 928 352 c 0,3,4
 926 193 926 193 821 73 c 1,5,-1
 900 -64 l 1,6,-1
 678 -64 l 1,7,-1
 662 -36 l 1,8,9
 590 -64 590 -64 512 -64 c 256,10,11
 434 -64 434 -64 362 -36 c 1,12,-1
 346 -64 l 1,13,-1
 124 -64 l 1,14,-1
 203 73 l 1,15,16
 98 193 98 193 96 352 c 0,17,18
 98 526 98 526 218 646 c 128,-1,19
 338 766 338 766 512 768 c 0,0,1
493 575 m 1,20,21
 405 567 405 567 347 503.5 c 128,-1,22
 289 440 289 440 288 352 c 0,23,24
 288 302 288 302 309 257 c 1,25,-1
 493 575 l 1,20,21
531 575 m 1,26,-1
 715 257 l 1,27,28
 736 302 736 302 736 352 c 0,29,30
 735 440 735 440 677 503.5 c 128,-1,31
 619 567 619 567 531 575 c 1,26,-1
512 224 m 1,32,-1
 460 134 l 1,33,34
 486 128 486 128 512 128 c 256,35,36
 538 128 538 128 564 134 c 1,37,-1
 512 224 l 1,32,-1
EndSplineSet
EndChar

StartChar: uni305E
Encoding: 12382 12382 65
Width: 1024
Flags: W
LayerCount: 2
Fore
SplineSet
368 768 m 0,0,1
 481 767 481 767 560 688 c 128,-1,2
 639 609 639 609 640 496 c 2,3,-1
 640 416 l 1,4,-1
 736 416 l 1,5,-1
 736 768 l 1,6,-1
 928 768 l 1,7,-1
 928 -64 l 1,8,-1
 832 -64 l 1,9,-1
 736 -64 l 1,10,-1
 640 -64 l 1,11,-1
 544 -64 l 1,12,-1
 96 -64 l 1,13,-1
 96 128 l 1,14,-1
 448 128 l 1,15,-1
 448 224 l 1,16,-1
 368 224 l 2,17,18
 255 225 255 225 176 304 c 128,-1,19
 97 383 97 383 96 496 c 0,20,21
 97 609 97 609 176 688 c 128,-1,22
 255 767 255 767 368 768 c 0,0,1
368 576 m 256,23,24
 335 576 335 576 311.5 552.5 c 128,-1,25
 288 529 288 529 288 496 c 256,26,27
 288 463 288 463 311.5 439.5 c 128,-1,28
 335 416 335 416 368 416 c 2,29,-1
 448 416 l 1,30,-1
 448 496 l 2,31,32
 448 529 448 529 424.5 552.5 c 128,-1,33
 401 576 401 576 368 576 c 256,23,24
640 224 m 1,34,-1
 640 128 l 1,35,-1
 736 128 l 1,36,-1
 736 224 l 1,37,-1
 640 224 l 1,34,-1
EndSplineSet
EndChar

StartChar: uni305F
Encoding: 12383 12383 66
Width: 1024
Flags: W
LayerCount: 2
Fore
SplineSet
128 768 m 1,0,-1
 381 730 l 1,1,-1
 357 572 l 1,2,-1
 104 610 l 1,3,-1
 128 768 l 1,0,-1
643 731 m 1,4,-1
 896 768 l 1,5,-1
 919 610 l 1,6,-1
 666 572 l 1,7,-1
 643 731 l 1,4,-1
180 512 m 1,8,-1
 384 512 l 1,9,10
 385 458 385 458 421.5 421.5 c 128,-1,11
 458 385 458 385 512 384 c 0,12,13
 566 385 566 385 602.5 421.5 c 128,-1,14
 639 458 639 458 640 512 c 1,15,-1
 845 512 l 1,16,-1
 512 -64 l 1,17,-1
 180 512 l 1,8,-1
EndSplineSet
EndChar

StartChar: uni3060
Encoding: 12384 12384 67
Width: 1024
Flags: W
LayerCount: 2
Fore
SplineSet
96 256 m 1,0,-1
 96 448 l 1,1,-1
 512 448 l 1,2,-1
 512 576 l 1,3,-1
 96 576 l 1,4,-1
 96 768 l 1,5,-1
 928 768 l 1,6,-1
 928 576 l 1,7,-1
 800 576 l 1,8,-1
 800 448 l 1,9,-1
 928 448 l 1,10,-1
 928 256 l 1,11,-1
 800 256 l 1,12,-1
 800 128 l 1,13,-1
 928 128 l 1,14,-1
 928 -64 l 1,15,-1
 96 -64 l 1,16,-1
 96 128 l 1,17,-1
 224 128 l 1,18,-1
 288 256 l 1,19,-1
 96 256 l 1,0,-1
EndSplineSet
EndChar

StartChar: uni3061
Encoding: 12385 12385 68
Width: 1024
Flags: W
LayerCount: 2
Fore
SplineSet
96 -64 m 1,0,-1
 96 192 l 1,1,-1
 96 256 l 1,2,-1
 96 768 l 1,3,-1
 928 768 l 1,4,-1
 928 256 l 1,5,-1
 928 192 l 1,6,-1
 928 -64 l 1,7,-1
 736 -64 l 1,8,-1
 736 192 l 1,9,-1
 608 192 l 1,10,-1
 608 -64 l 1,11,-1
 416 -64 l 1,12,-1
 416 192 l 1,13,-1
 288 192 l 1,14,-1
 288 -64 l 1,15,-1
 96 -64 l 1,16,-1
 96 -64 l 1,0,-1
EndSplineSet
EndChar

StartChar: uni3062
Encoding: 12386 12386 69
Width: 1024
Flags: W
LayerCount: 2
Fore
SplineSet
192 768 m 1,0,-1
 832 768 l 1,1,-1
 832 256 l 2,2,3
 831 122 831 122 738.5 29.5 c 128,-1,4
 646 -63 646 -63 512 -64 c 0,5,6
 378 -63 378 -63 285.5 29.5 c 128,-1,7
 193 122 193 122 192 256 c 2,8,-1
 192 768 l 1,0,-1
EndSplineSet
EndChar

StartChar: uni3064
Encoding: 12388 12388 70
Width: 1024
Flags: W
LayerCount: 2
Fore
SplineSet
64 768 m 1,0,-1
 960 768 l 1,1,-1
 640 -64 l 1,2,-1
 512 269 l 1,3,-1
 384 -64 l 1,4,-1
 64 768 l 1,0,-1
EndSplineSet
EndChar

StartChar: uni3065
Encoding: 12389 12389 71
Width: 1024
Flags: W
LayerCount: 2
Fore
SplineSet
96 768 m 1,0,-1
 608 768 l 1,1,-1
 928 768 l 1,2,-1
 928 224 l 2,3,4
 927 104 927 104 843.5 20.5 c 128,-1,5
 760 -63 760 -63 640 -64 c 0,6,7
 529 -63 529 -63 448 9.5 c 128,-1,8
 367 82 367 82 354 192 c 1,9,-1
 352 192 l 2,10,11
 245 193 245 193 171 267 c 128,-1,12
 97 341 97 341 96 448 c 2,13,-1
 96 768 l 1,0,-1
EndSplineSet
EndChar

StartChar: uni3066
Encoding: 12390 12390 72
Width: 1024
Flags: W
LayerCount: 2
Fore
SplineSet
800 832 m 1,0,-1
 800 256 l 1,1,-1
 928 256 l 1,2,-1
 928 64 l 1,3,-1
 800 64 l 1,4,-1
 800 -64 l 1,5,-1
 608 -64 l 1,6,-1
 608 64 l 1,7,-1
 32 64 l 1,8,-1
 800 832 l 1,0,-1
EndSplineSet
EndChar

StartChar: uni3067
Encoding: 12391 12391 73
Width: 1024
Flags: W
LayerCount: 2
Fore
SplineSet
96 768 m 1,0,-1
 256 768 l 1,1,-1
 480 768 l 1,2,-1
 640 768 l 1,3,-1
 640 608 l 1,4,-1
 640 384 l 2,5,6
 639 317 639 317 593 271 c 128,-1,7
 547 225 547 225 480 224 c 2,8,-1
 256 224 l 1,9,-1
 96 224 l 1,10,-1
 96 384 l 1,11,-1
 96 608 l 1,12,-1
 96 768 l 1,0,-1
736 768 m 1,13,-1
 928 768 l 1,14,-1
 928 352 l 2,15,16
 926 178 926 178 806 58 c 128,-1,17
 686 -62 686 -62 512 -64 c 2,18,-1
 96 -64 l 1,19,-1
 96 128 l 1,20,-1
 512 128 l 2,21,22
 606 129 606 129 670.5 193.5 c 128,-1,23
 735 258 735 258 736 352 c 2,24,-1
 736 768 l 1,13,-1
EndSplineSet
EndChar

StartChar: uni3068
Encoding: 12392 12392 74
Width: 1024
Flags: W
LayerCount: 2
Fore
SplineSet
512 800 m 1,0,-1
 676 545 l 1,1,-1
 968 468 l 1,2,-1
 777 234 l 1,3,-1
 794 -68 l 1,4,-1
 512 42 l 1,5,-1
 230 -68 l 1,6,-1
 247 234 l 1,7,-1
 55 468 l 1,8,-1
 348 545 l 1,9,-1
 512 800 l 1,0,-1
EndSplineSet
EndChar

StartChar: uni3069
Encoding: 12393 12393 75
Width: 1024
Flags: W
LayerCount: 2
Fore
SplineSet
96 352 m 256,0,1
 96 526 96 526 217 647 c 128,-1,2
 338 768 338 768 512 768 c 256,3,4
 686 768 686 768 807 647 c 128,-1,5
 928 526 928 526 928 352 c 256,6,7
 928 178 928 178 807 57 c 128,-1,8
 686 -64 686 -64 512 -64 c 256,9,10
 338 -64 338 -64 217 57 c 128,-1,11
 96 178 96 178 96 352 c 256,0,1
224 352 m 256,12,13
 224 232 224 232 308 148 c 128,-1,14
 392 64 392 64 512 64 c 256,15,16
 632 64 632 64 716 148 c 128,-1,17
 800 232 800 232 800 352 c 256,18,19
 800 472 800 472 716 556 c 128,-1,20
 632 640 632 640 512 640 c 256,21,22
 392 640 392 640 308 556 c 128,-1,23
 224 472 224 472 224 352 c 256,12,13
352 352 m 256,24,25
 352 419 352 419 398.5 465.5 c 128,-1,26
 445 512 445 512 512 512 c 256,27,28
 579 512 579 512 625.5 465.5 c 128,-1,29
 672 419 672 419 672 352 c 256,30,31
 672 285 672 285 625.5 238.5 c 128,-1,32
 579 192 579 192 512 192 c 256,33,34
 445 192 445 192 398.5 238.5 c 128,-1,35
 352 285 352 285 352 352 c 256,24,25
EndSplineSet
EndChar

StartChar: uni306A
Encoding: 12394 12394 76
Width: 1024
Flags: W
LayerCount: 2
Fore
SplineSet
388 768 m 1,0,-1
 593 768 l 1,1,-1
 665 576 l 1,2,-1
 960 576 l 1,3,-1
 960 384 l 1,4,-1
 737 384 l 1,5,-1
 905 -64 l 1,6,-1
 700 -64 l 1,7,-1
 532 384 l 1,8,-1
 448 384 l 1,9,-1
 448 -64 l 1,10,-1
 256 -64 l 2,11,12
 189 -63 189 -63 143 -17 c 128,-1,13
 97 29 97 29 96 96 c 0,14,15
 97 163 97 163 143 209 c 128,-1,16
 189 255 189 255 256 256 c 1,17,-1
 256 384 l 1,18,-1
 96 384 l 1,19,-1
 96 576 l 1,20,-1
 460 576 l 1,21,-1
 388 768 l 1,0,-1
EndSplineSet
EndChar

StartChar: uni306B
Encoding: 12395 12395 77
Width: 1024
Flags: W
LayerCount: 2
Fore
SplineSet
96 768 m 1,0,-1
 192 768 l 1,1,-1
 288 768 l 1,2,-1
 928 768 l 1,3,-1
 928 576 l 1,4,-1
 288 576 l 1,5,-1
 288 -64 l 1,6,-1
 96 -64 l 1,7,-1
 96 768 l 1,0,-1
608 480 m 0,8,9
 662 479 662 479 698.5 442.5 c 128,-1,10
 735 406 735 406 736 352 c 0,11,12
 735 298 735 298 698.5 261.5 c 128,-1,13
 662 225 662 225 608 224 c 0,14,15
 554 225 554 225 517.5 261.5 c 128,-1,16
 481 298 481 298 480 352 c 0,17,18
 481 406 481 406 517.5 442.5 c 128,-1,19
 554 479 554 479 608 480 c 0,8,9
608 128 m 0,20,21
 662 127 662 127 698.5 90.5 c 128,-1,22
 735 54 735 54 736 0 c 0,23,24
 735 -54 735 -54 698.5 -90.5 c 128,-1,25
 662 -127 662 -127 608 -128 c 0,26,27
 554 -127 554 -127 517.5 -90.5 c 128,-1,28
 481 -54 481 -54 480 0 c 0,29,30
 481 54 481 54 517.5 90.5 c 128,-1,31
 554 127 554 127 608 128 c 0,20,21
EndSplineSet
EndChar

StartChar: uni306C
Encoding: 12396 12396 78
Width: 1024
Flags: W
LayerCount: 2
Fore
SplineSet
32 768 m 1,0,-1
 993 768 l 1,1,-1
 512 -64 l 1,2,-1
 32 768 l 1,0,-1
512 608 m 0,3,4
 458 607 458 607 421.5 570.5 c 128,-1,5
 385 534 385 534 384 480 c 0,6,7
 385 426 385 426 421.5 389.5 c 128,-1,8
 458 353 458 353 512 352 c 0,9,10
 566 353 566 353 602.5 389.5 c 128,-1,11
 639 426 639 426 640 480 c 0,12,13
 639 534 639 534 602.5 570.5 c 128,-1,14
 566 607 566 607 512 608 c 0,3,4
EndSplineSet
EndChar

StartChar: uni306D
Encoding: 12397 12397 79
Width: 1024
Flags: W
LayerCount: 2
Fore
SplineSet
96 768 m 1,0,-1
 480 768 l 1,1,-1
 928 768 l 1,2,-1
 928 576 l 1,3,-1
 704 576 l 1,4,-1
 480 576 l 1,5,-1
 480 352 l 1,6,-1
 480 128 l 1,7,-1
 704 128 l 1,8,-1
 928 128 l 1,9,-1
 928 -64 l 1,10,-1
 480 -64 l 1,11,-1
 96 -64 l 1,12,-1
 96 768 l 1,0,-1
704 576 m 1,13,-1
 928 352 l 1,14,-1
 704 128 l 1,15,-1
 480 352 l 1,16,-1
 704 576 l 1,13,-1
EndSplineSet
EndChar

StartChar: uni306E
Encoding: 12398 12398 80
Width: 1024
Flags: W
LayerCount: 2
Fore
SplineSet
368 -64 m 0,0,1
 255 -63 255 -63 176 16 c 128,-1,2
 97 95 97 95 96 208 c 0,3,4
 97 321 97 321 176 400 c 128,-1,5
 255 479 255 479 368 480 c 2,6,-1
 448 480 l 1,7,-1
 448 576 l 1,8,-1
 96 576 l 1,9,-1
 96 768 l 1,10,-1
 448 768 l 1,11,-1
 544 768 l 1,12,-1
 640 768 l 1,13,-1
 640 480 l 1,14,-1
 736 480 l 1,15,-1
 736 768 l 1,16,-1
 928 768 l 1,17,-1
 928 -64 l 1,18,-1
 736 -64 l 1,19,-1
 736 288 l 1,20,-1
 640 288 l 1,21,-1
 640 208 l 2,22,23
 639 95 639 95 560 16 c 128,-1,24
 481 -63 481 -63 368 -64 c 0,0,1
368 128 m 256,25,26
 401 128 401 128 424.5 151.5 c 128,-1,27
 448 175 448 175 448 208 c 2,28,-1
 448 288 l 1,29,-1
 368 288 l 2,30,31
 335 288 335 288 311.5 264.5 c 128,-1,32
 288 241 288 241 288 208 c 256,33,34
 288 175 288 175 311.5 151.5 c 128,-1,35
 335 128 335 128 368 128 c 256,25,26
EndSplineSet
EndChar

StartChar: uni306F
Encoding: 12399 12399 81
Width: 1024
Flags: W
LayerCount: 2
Fore
SplineSet
608 -64 m 1,0,-1
 416 -64 l 1,1,-1
 416 64 l 1,2,-1
 288 64 l 1,3,-1
 288 -64 l 1,4,-1
 96 -64 l 1,5,-1
 96 768 l 1,6,-1
 288 768 l 1,7,-1
 288 640 l 1,8,-1
 416 640 l 1,9,-1
 416 768 l 1,10,-1
 608 768 l 1,11,-1
 608 640 l 1,12,-1
 736 640 l 1,13,-1
 736 768 l 1,14,-1
 928 768 l 1,15,-1
 928 -64 l 1,16,-1
 736 -64 l 1,17,-1
 736 64 l 1,18,-1
 608 64 l 1,19,-1
 608 -64 l 1,0,-1
EndSplineSet
EndChar

StartChar: uni3070
Encoding: 12400 12400 82
Width: 1024
Flags: W
LayerCount: 2
Fore
SplineSet
352 832 m 0,0,1
 406 831 406 831 442.5 794.5 c 128,-1,2
 479 758 479 758 480 704 c 0,3,4
 479 650 479 650 442.5 613.5 c 128,-1,5
 406 577 406 577 352 576 c 0,6,7
 298 577 298 577 261.5 613.5 c 128,-1,8
 225 650 225 650 224 704 c 0,9,10
 225 758 225 758 261.5 794.5 c 128,-1,11
 298 831 298 831 352 832 c 0,0,1
224 512 m 1,12,-1
 512 512 l 2,13,14
 632 511 632 511 715.5 427.5 c 128,-1,15
 799 344 799 344 800 224 c 0,16,17
 799 104 799 104 715.5 20.5 c 128,-1,18
 632 -63 632 -63 512 -64 c 2,19,-1
 224 -64 l 1,20,-1
 224 512 l 1,12,-1
EndSplineSet
EndChar

StartChar: uni3071
Encoding: 12401 12401 83
Width: 1024
Flags: W
LayerCount: 2
Fore
SplineSet
512 832 m 1,0,-1
 512 -64 l 1,1,2
 404.917872323 -64 404.917872323 -64 291.240101019 1.63213818645 c 128,-1,3
 177.562329716 67.2642763729 177.562329716 67.2642763729 124.021484375 160 c 0,4,5
 99.1728200711 203.038205907 99.1728200711 203.038205907 81.5868983168 268.670379554 c 128,-1,6
 64.0009765625 334.302553202 64.0009765625 334.302553202 64.0009765625 384 c 128,-1,7
 64.0009765625 433.697446798 64.0009765625 433.697446798 81.5868983168 499.329620446 c 128,-1,8
 99.1728200711 564.961794093 99.1728200711 564.961794093 124.021484375 608 c 0,9,10
 177.562329716 700.735723627 177.562329716 700.735723627 291.240101019 766.367861814 c 128,-1,11
 404.917872323 832 404.917872323 832 512 832 c 1,0,-1
960 832 m 1,12,-1
 960 -64 l 1,13,14
 852.917872323 -64 852.917872323 -64 739.240101019 1.63213818645 c 128,-1,15
 625.562329716 67.2642763729 625.562329716 67.2642763729 572.021484375 160 c 0,16,17
 547.172820071 203.038205907 547.172820071 203.038205907 529.586898317 268.670379554 c 128,-1,18
 512.000976562 334.302553202 512.000976562 334.302553202 512.000976562 384 c 128,-1,19
 512.000976562 433.697446798 512.000976562 433.697446798 529.586898317 499.329620446 c 128,-1,20
 547.172820071 564.961794093 547.172820071 564.961794093 572.021484375 608 c 0,21,22
 625.562329716 700.735723627 625.562329716 700.735723627 739.240101019 766.367861814 c 128,-1,23
 852.917872323 832 852.917872323 832 960 832 c 1,12,-1
EndSplineSet
EndChar

StartChar: uni3072
Encoding: 12402 12402 84
Width: 1024
Flags: W
LayerCount: 2
Fore
SplineSet
96 768 m 1,0,-1
 672 768 l 1,1,-1
 672 512 l 1,2,-1
 928 512 l 1,3,-1
 928 -64 l 1,4,-1
 352 -64 l 1,5,-1
 352 192 l 1,6,-1
 96 192 l 1,7,-1
 96 768 l 1,0,-1
288 576 m 1,8,-1
 288 384 l 1,9,-1
 480 384 l 1,10,-1
 480 576 l 1,11,-1
 288 576 l 1,8,-1
544 320 m 1,12,-1
 544 128 l 1,13,-1
 736 128 l 1,14,-1
 736 320 l 1,15,-1
 544 320 l 1,12,-1
EndSplineSet
EndChar

StartChar: uni3073
Encoding: 12403 12403 85
Width: 1024
Flags: W
LayerCount: 2
Fore
SplineSet
512 768 m 2,0,-1
 928 768 l 1,1,-1
 928 576 l 1,2,-1
 512 576 l 2,3,4
 418 575 418 575 354 511 c 2,5,-1
 353 510 l 1,6,7
 368 512 368 512 384 512 c 0,8,9
 504 511 504 511 587.5 427.5 c 128,-1,10
 671 344 671 344 672 224 c 0,11,12
 672 173 672 173 656 128 c 1,13,-1
 928 128 l 1,14,-1
 928 -64 l 1,15,-1
 384 -64 l 1,16,-1
 96 -64 l 1,17,-1
 96 224 l 1,18,-1
 96 352 l 2,19,20
 98 526 98 526 218 646 c 128,-1,21
 338 766 338 766 512 768 c 2,0,-1
384 320 m 256,22,23
 344 320 344 320 316 292 c 128,-1,24
 288 264 288 264 288 224 c 2,25,-1
 288 128 l 1,26,-1
 384 128 l 2,27,28
 424 128 424 128 452 156 c 256,29,30
 480 184 480 184 480 224 c 256,31,32
 480 264 480 264 452 292 c 128,-1,33
 424 320 424 320 384 320 c 256,22,23
832 580 m 1,34,-1
 960 352 l 1,35,-1
 832 124 l 1,36,-1
 704 352 l 1,37,-1
 832 580 l 1,34,-1
EndSplineSet
EndChar

StartChar: uni3074
Encoding: 12404 12404 86
Width: 1024
Flags: W
LayerCount: 2
Fore
SplineSet
512 -64 m 1,0,-1
 32 768 l 1,1,-1
 992 768 l 1,2,-1
 512 -64 l 1,3,-1
 512 -64 l 1,0,-1
EndSplineSet
EndChar

StartChar: uni3075
Encoding: 12405 12405 87
Width: 1024
Flags: W
LayerCount: 2
Fore
SplineSet
96 768 m 1,0,-1
 758 768 l 1,1,-1
 623 512 l 1,2,-1
 973 512 l 1,3,-1
 640 -64 l 1,4,-1
 473 226 l 1,5,-1
 320 -64 l 1,6,-1
 96 -64 l 1,7,-1
 96 768 l 1,0,-1
EndSplineSet
EndChar

StartChar: uni3076
Encoding: 12406 12406 88
Width: 1024
Flags: W
LayerCount: 2
Fore
SplineSet
416 -64 m 1,0,-1
 416 768 l 1,1,-1
 928 768 l 1,2,-1
 928 -64 l 1,3,-1
 416 -64 l 1,0,-1
96 704 m 256,4,5
 96 757 96 757 133.5 794.5 c 128,-1,6
 171 832 171 832 224 832 c 256,7,8
 277 832 277 832 314.5 794.5 c 128,-1,9
 352 757 352 757 352 704 c 256,10,11
 352 651 352 651 314.5 613.5 c 128,-1,12
 277 576 277 576 224 576 c 256,13,14
 171 576 171 576 133.5 613.5 c 128,-1,15
 96 651 96 651 96 704 c 256,4,5
416 512 m 1,16,-1
 96 512 l 1,17,-1
 96 -128 l 1,18,-1
 416 512 l 1,16,-1
EndSplineSet
EndChar

StartChar: uni3077
Encoding: 12407 12407 89
Width: 1024
Flags: W
LayerCount: 2
Fore
SplineSet
96 768 m 1,0,-1
 288 768 l 1,1,-1
 288 704 l 2,2,3
 289 610 289 610 353.5 545.5 c 128,-1,4
 418 481 418 481 512 480 c 0,5,6
 606 481 606 481 670.5 545.5 c 128,-1,7
 735 610 735 610 736 704 c 2,8,-1
 736 768 l 1,9,-1
 928 768 l 1,10,-1
 928 -64 l 1,11,-1
 96 -64 l 1,12,-1
 96 768 l 1,0,-1
512 832 m 0,13,14
 566 831 566 831 602.5 794.5 c 128,-1,15
 639 758 639 758 640 704 c 0,16,17
 639 650 639 650 602.5 613.5 c 128,-1,18
 566 577 566 577 512 576 c 0,19,20
 458 577 458 577 421.5 613.5 c 128,-1,21
 385 650 385 650 384 704 c 0,22,23
 385 758 385 758 421.5 794.5 c 128,-1,24
 458 831 458 831 512 832 c 0,13,14
EndSplineSet
EndChar

StartChar: uni3078
Encoding: 12408 12408 90
Width: 1024
Flags: W
LayerCount: 2
Fore
SplineSet
96 -64 m 1,0,-1
 96 768 l 1,1,-1
 928 768 l 1,2,-1
 928 384 l 1,3,-1
 512 384 l 1,4,-1
 512 256 l 2,5,6
 511 -65 511 -65 96 -64 c 1,7,-1
 96 -64 l 1,0,-1
608 -64 m 1,8,-1
 608 288 l 1,9,-1
 928 288 l 1,10,-1
 928 -64 l 1,11,-1
 608 -64 l 1,8,-1
EndSplineSet
EndChar

StartChar: uni3079
Encoding: 12409 12409 91
Width: 1024
Flags: W
LayerCount: 2
Fore
SplineSet
512 768 m 0,0,1
 646 767 646 767 738.5 674.5 c 128,-1,2
 831 582 831 582 832 448 c 0,3,4
 831 314 831 314 738.5 221.5 c 128,-1,5
 646 129 646 129 512 128 c 0,6,7
 382 130 382 130 288 219 c 1,8,-1
 288 676 l 1,9,10
 382 766 382 766 512 768 c 0,0,1
512 128 m 0,11,12
 566 127 566 127 602.5 90.5 c 128,-1,13
 639 54 639 54 640 0 c 0,14,15
 639 -54 639 -54 602.5 -90.5 c 128,-1,16
 566 -127 566 -127 512 -128 c 0,17,18
 458 -127 458 -127 421.5 -90.5 c 128,-1,19
 385 -54 385 -54 384 0 c 0,20,21
 385 54 385 54 421.5 90.5 c 128,-1,22
 458 127 458 127 512 128 c 0,11,12
EndSplineSet
EndChar

StartChar: uni307A
Encoding: 12410 12410 92
Width: 1024
Flags: W
LayerCount: 2
Fore
SplineSet
832 832 m 0,0,1
 886 831 886 831 922.5 794.5 c 128,-1,2
 959 758 959 758 960 704 c 0,3,4
 959 650 959 650 922.5 613.5 c 128,-1,5
 886 577 886 577 832 576 c 0,6,7
 778 577 778 577 741.5 613.5 c 128,-1,8
 705 650 705 650 704 704 c 0,9,10
 705 758 705 758 741.5 794.5 c 128,-1,11
 778 831 778 831 832 832 c 0,0,1
416 768 m 1,12,-1
 736 448 l 1,13,-1
 416 128 l 1,14,-1
 96 448 l 1,15,-1
 416 768 l 1,12,-1
736 128 m 1,16,-1
 736 448 l 1,17,-1
 736 512 l 1,18,-1
 928 512 l 1,19,-1
 928 128 l 1,20,-1
 928 -64 l 1,21,-1
 96 -64 l 1,22,-1
 96 128 l 1,23,-1
 416 128 l 1,24,-1
 736 128 l 1,16,-1
EndSplineSet
EndChar

StartChar: uni307B
Encoding: 12411 12411 93
Width: 1024
Flags: W
LayerCount: 2
Fore
SplineSet
96 768 m 1,0,-1
 928 768 l 1,1,-1
 928 -64 l 1,2,-1
 96 -64 l 1,3,-1
 96 768 l 1,0,-1
512 640 m 1,4,-1
 225 353 l 1,5,-1
 512 65 l 1,6,-1
 799 353 l 1,7,-1
 512 640 l 1,4,-1
EndSplineSet
EndChar

StartChar: uni307C
Encoding: 12412 12412 94
Width: 1024
Flags: W
LayerCount: 2
Fore
SplineSet
96 768 m 1,0,-1
 288 768 l 1,1,-1
 288 288 l 1,2,-1
 512 512 l 1,3,-1
 736 288 l 1,4,-1
 736 768 l 1,5,-1
 928 768 l 1,6,-1
 928 -64 l 1,7,-1
 736 -64 l 1,8,-1
 736 160 l 1,9,-1
 512 -64 l 1,10,-1
 288 160 l 1,11,-1
 288 -64 l 1,12,-1
 96 -64 l 1,13,-1
 96 768 l 1,0,-1
512 576 m 0,14,15
 458 577 458 577 421.5 613.5 c 128,-1,16
 385 650 385 650 384 704 c 0,17,18
 385 758 385 758 421.5 794.5 c 128,-1,19
 458 831 458 831 512 832 c 0,20,21
 566 831 566 831 602.5 794.5 c 128,-1,22
 639 758 639 758 640 704 c 0,23,24
 639 650 639 650 602.5 613.5 c 128,-1,25
 566 577 566 577 512 576 c 0,14,15
EndSplineSet
EndChar

StartChar: uni307D
Encoding: 12413 12413 95
Width: 1024
Flags: W
LayerCount: 2
Fore
SplineSet
224 832 m 0,0,1
 278 831 278 831 314.5 794.5 c 128,-1,2
 351 758 351 758 352 704 c 0,3,4
 351 650 351 650 314.5 613.5 c 128,-1,5
 278 577 278 577 224 576 c 0,6,7
 170 577 170 577 133.5 613.5 c 128,-1,8
 97 650 97 650 96 704 c 0,9,10
 97 758 97 758 133.5 794.5 c 128,-1,11
 170 831 170 831 224 832 c 0,0,1
800 832 m 0,12,13
 854 831 854 831 890.5 794.5 c 128,-1,14
 927 758 927 758 928 704 c 0,15,16
 927 650 927 650 890.5 613.5 c 128,-1,17
 854 577 854 577 800 576 c 0,18,19
 746 577 746 577 709.5 613.5 c 128,-1,20
 673 650 673 650 672 704 c 0,21,22
 673 758 673 758 709.5 794.5 c 128,-1,23
 746 831 746 831 800 832 c 0,12,13
180 512 m 1,24,-1
 384 512 l 1,25,26
 385 458 385 458 421.5 421.5 c 128,-1,27
 458 385 458 385 512 384 c 0,28,29
 566 385 566 385 602.5 421.5 c 128,-1,30
 639 458 639 458 640 512 c 1,31,-1
 845 512 l 1,32,-1
 512 -64 l 1,33,-1
 180 512 l 1,24,-1
EndSplineSet
EndChar

StartChar: uni307E
Encoding: 12414 12414 96
Width: 1024
Flags: W
LayerCount: 2
Fore
SplineSet
96 768 m 1,0,-1
 192 768 l 1,1,-1
 288 768 l 1,2,-1
 544 768 l 1,3,-1
 640 768 l 1,4,-1
 640 128 l 1,5,-1
 736 128 l 1,6,-1
 736 512 l 1,7,-1
 928 512 l 1,8,-1
 928 128 l 1,9,-1
 928 -64 l 1,10,-1
 288 -64 l 1,11,-1
 192 -64 l 1,12,-1
 96 -64 l 1,13,-1
 96 768 l 1,0,-1
832 832 m 0,14,15
 886 831 886 831 922.5 794.5 c 128,-1,16
 959 758 959 758 960 704 c 0,17,18
 959 650 959 650 922.5 613.5 c 128,-1,19
 886 577 886 577 832 576 c 0,20,21
 778 577 778 577 741.5 613.5 c 128,-1,22
 705 650 705 650 704 704 c 0,23,24
 705 758 705 758 741.5 794.5 c 128,-1,25
 778 831 778 831 832 832 c 0,14,15
288 576 m 1,26,-1
 288 416 l 1,27,-1
 448 416 l 1,28,-1
 448 576 l 1,29,-1
 288 576 l 1,26,-1
288 288 m 1,30,-1
 288 128 l 1,31,-1
 448 128 l 1,32,-1
 448 288 l 1,33,-1
 288 288 l 1,30,-1
EndSplineSet
EndChar

StartChar: uni307F
Encoding: 12415 12415 97
Width: 1024
Flags: W
LayerCount: 2
Fore
SplineSet
368 768 m 0,0,1
 481 767 481 767 560 688 c 128,-1,2
 639 609 639 609 640 496 c 2,3,-1
 640 416 l 1,4,-1
 736 416 l 1,5,-1
 736 768 l 1,6,-1
 928 768 l 1,7,-1
 928 416 l 1,8,-1
 928 224 l 1,9,-1
 928 -64 l 1,10,-1
 736 -64 l 1,11,-1
 736 224 l 1,12,-1
 640 224 l 1,13,-1
 640 -64 l 1,14,-1
 448 -64 l 1,15,-1
 448 224 l 1,16,-1
 368 224 l 2,17,18
 255 225 255 225 176 304 c 128,-1,19
 97 383 97 383 96 496 c 0,20,21
 97 609 97 609 176 688 c 128,-1,22
 255 767 255 767 368 768 c 0,0,1
368 576 m 256,23,24
 335 576 335 576 311.5 552.5 c 128,-1,25
 288 529 288 529 288 496 c 256,26,27
 288 463 288 463 311.5 439.5 c 128,-1,28
 335 416 335 416 368 416 c 2,29,-1
 448 416 l 1,30,-1
 448 496 l 2,31,32
 448 529 448 529 424.5 552.5 c 128,-1,33
 401 576 401 576 368 576 c 256,23,24
EndSplineSet
EndChar

StartChar: uni3080
Encoding: 12416 12416 98
Width: 1024
Flags: W
LayerCount: 2
Fore
SplineSet
96 768 m 1,0,-1
 928 768 l 1,1,-1
 928 4 l 1,2,-1
 580 352 l 1,3,-1
 512 420 l 1,4,-1
 444 352 l 1,5,-1
 96 4 l 1,6,-1
 96 768 l 1,0,-1
512 284 m 1,7,-1
 860 -64 l 1,8,-1
 164 -64 l 1,9,-1
 512 284 l 1,7,-1
EndSplineSet
EndChar

StartChar: uni3081
Encoding: 12417 12417 99
Width: 1024
Flags: W
LayerCount: 2
Fore
SplineSet
512 768 m 2,0,-1
 928 768 l 1,1,-1
 928 704 l 1,2,-1
 928 640 l 1,3,-1
 928 576 l 1,4,-1
 862 576 l 1,5,6
 927 477 927 477 928 352 c 0,7,8
 927 227 927 227 862 128 c 1,9,-1
 928 128 l 1,10,-1
 928 64 l 1,11,-1
 928 0 l 1,12,-1
 928 -64 l 1,13,-1
 512 -64 l 2,14,15
 338 -62 338 -62 218 58 c 128,-1,16
 98 178 98 178 96 352 c 0,17,18
 98 526 98 526 218 646 c 128,-1,19
 338 766 338 766 512 768 c 2,0,-1
336 464 m 256,20,21
 289 464 289 464 256.5 431.5 c 128,-1,22
 224 399 224 399 224 352 c 256,23,24
 224 305 224 305 256.5 272.5 c 128,-1,25
 289 240 289 240 336 240 c 256,26,27
 383 240 383 240 415.5 272.5 c 128,-1,28
 448 305 448 305 448 352 c 256,29,30
 448 399 448 399 415.5 431.5 c 128,-1,31
 383 464 383 464 336 464 c 256,20,21
688 464 m 256,32,33
 641 464 641 464 608.5 431.5 c 128,-1,34
 576 399 576 399 576 352 c 256,35,36
 576 305 576 305 608.5 272.5 c 128,-1,37
 641 240 641 240 688 240 c 256,38,39
 735 240 735 240 767.5 272.5 c 128,-1,40
 800 305 800 305 800 352 c 256,41,42
 800 399 800 399 767.5 431.5 c 128,-1,43
 735 464 735 464 688 464 c 256,32,33
EndSplineSet
EndChar

StartChar: uni3082
Encoding: 12418 12418 100
Width: 1024
Flags: W
LayerCount: 2
Fore
SplineSet
97 768 m 1,0,-1
 309 768 l 1,1,-1
 400 575 l 1,2,-1
 512 767 l 1,3,-1
 623 574 l 1,4,-1
 715 768 l 1,5,-1
 927 768 l 1,6,-1
 740 372 l 1,7,-1
 918 64 l 1,8,-1
 608 64 l 1,9,-1
 608 -64 l 1,10,-1
 416 -64 l 1,11,-1
 416 64 l 1,12,-1
 105 64 l 1,13,-1
 283 372 l 1,14,-1
 97 768 l 1,0,-1
EndSplineSet
EndChar

StartChar: uni3084
Encoding: 12420 12420 101
Width: 1024
Flags: W
LayerCount: 2
Fore
SplineSet
96 768 m 1,0,-1
 608 768 l 1,1,-1
 608 256 l 1,2,-1
 426 256 l 1,3,-1
 611 -64 l 1,4,-1
 93 -64 l 1,5,-1
 278 256 l 1,6,-1
 96 256 l 1,7,-1
 96 768 l 1,0,-1
736 768 m 1,8,-1
 928 768 l 1,9,-1
 928 -64 l 1,10,-1
 736 -64 l 1,11,-1
 736 768 l 1,8,-1
EndSplineSet
EndChar

StartChar: uni3086
Encoding: 12422 12422 102
Width: 1024
Flags: W
LayerCount: 2
Fore
SplineSet
96 768 m 1,0,-1
 96 768 l 1,1,-1
 960 768 l 1,2,-1
 960 576 l 1,3,-1
 864 576 l 1,4,-1
 864 -64 l 1,5,-1
 288 -64 l 1,6,-1
 288 192 l 1,7,-1
 192 192 l 1,8,-1
 192 320 l 1,9,-1
 288 320 l 1,10,-1
 288 384 l 1,11,-1
 192 384 l 1,12,-1
 192 512 l 1,13,-1
 288 512 l 1,14,-1
 288 576 l 1,15,-1
 96 576 l 1,16,-1
 96 768 l 1,0,-1
EndSplineSet
EndChar

StartChar: uni3088
Encoding: 12424 12424 103
Width: 1024
Flags: W
LayerCount: 2
Fore
SplineSet
224 832 m 0,0,1
 278 831 278 831 314.5 794.5 c 128,-1,2
 351 758 351 758 352 704 c 0,3,4
 351 650 351 650 314.5 613.5 c 128,-1,5
 278 577 278 577 224 576 c 0,6,7
 170 577 170 577 133.5 613.5 c 128,-1,8
 97 650 97 650 96 704 c 0,9,10
 97 758 97 758 133.5 794.5 c 128,-1,11
 170 831 170 831 224 832 c 0,0,1
800 832 m 0,12,13
 854 831 854 831 890.5 794.5 c 128,-1,14
 927 758 927 758 928 704 c 0,15,16
 927 650 927 650 890.5 613.5 c 128,-1,17
 854 577 854 577 800 576 c 0,18,19
 746 577 746 577 709.5 613.5 c 128,-1,20
 673 650 673 650 672 704 c 0,21,22
 673 758 673 758 709.5 794.5 c 128,-1,23
 746 831 746 831 800 832 c 0,12,13
96 512 m 1,24,-1
 928 512 l 1,25,-1
 928 -64 l 1,26,-1
 96 -64 l 1,27,-1
 96 512 l 1,24,-1
EndSplineSet
EndChar

StartChar: uni3089
Encoding: 12425 12425 104
Width: 1024
Flags: W
LayerCount: 2
Fore
SplineSet
96 768 m 1,0,-1
 928 768 l 1,1,-1
 928 576 l 1,2,-1
 928 448 l 1,3,-1
 928 192 l 1,4,-1
 800 192 l 1,5,-1
 800 -64 l 1,6,-1
 608 -64 l 1,7,-1
 608 192 l 1,8,-1
 96 192 l 1,9,-1
 96 448 l 1,10,-1
 96 576 l 1,11,-1
 96 768 l 1,0,-1
224 0 m 256,12,13
 224 53 224 53 261.5 90.5 c 128,-1,14
 299 128 299 128 352 128 c 256,15,16
 405 128 405 128 442.5 90.5 c 128,-1,17
 480 53 480 53 480 0 c 256,18,19
 480 -53 480 -53 442.5 -90.5 c 128,-1,20
 405 -128 405 -128 352 -128 c 256,21,22
 299 -128 299 -128 261.5 -90.5 c 128,-1,23
 224 -53 224 -53 224 0 c 256,12,13
EndSplineSet
EndChar

StartChar: uni308A
Encoding: 12426 12426 105
Width: 1024
Flags: W
LayerCount: 2
Fore
SplineSet
96 768 m 1,0,-1
 928 768 l 1,1,-1
 928 192 l 1,2,-1
 512 192 l 1,3,-1
 96 192 l 1,4,-1
 96 768 l 1,0,-1
512 128 m 0,5,6
 566 127 566 127 602.5 90.5 c 128,-1,7
 639 54 639 54 640 0 c 0,8,9
 639 -54 639 -54 602.5 -90.5 c 128,-1,10
 566 -127 566 -127 512 -128 c 0,11,12
 458 -127 458 -127 421.5 -90.5 c 128,-1,13
 385 -54 385 -54 384 0 c 0,14,15
 385 54 385 54 421.5 90.5 c 128,-1,16
 458 127 458 127 512 128 c 0,5,6
EndSplineSet
EndChar

StartChar: uni308B
Encoding: 12427 12427 106
Width: 1024
Flags: W
LayerCount: 2
Fore
SplineSet
368 -64 m 0,0,1
 255 -63 255 -63 176 16 c 128,-1,2
 97 95 97 95 96 208 c 0,3,4
 97 321 97 321 176 400 c 128,-1,5
 255 479 255 479 368 480 c 2,6,-1
 448 480 l 1,7,-1
 448 576 l 1,8,-1
 96 576 l 1,9,-1
 96 768 l 1,10,-1
 544 768 l 1,11,-1
 640 768 l 1,12,-1
 736 768 l 1,13,-1
 832 768 l 1,14,-1
 928 768 l 1,15,-1
 928 -64 l 1,16,-1
 736 -64 l 1,17,-1
 736 288 l 1,18,-1
 640 288 l 1,19,-1
 640 208 l 2,20,21
 639 95 639 95 560 16 c 128,-1,22
 481 -63 481 -63 368 -64 c 0,0,1
368 128 m 256,23,24
 401 128 401 128 424.5 151.5 c 128,-1,25
 448 175 448 175 448 208 c 2,26,-1
 448 288 l 1,27,-1
 368 288 l 2,28,29
 335 288 335 288 311.5 264.5 c 128,-1,30
 288 241 288 241 288 208 c 256,31,32
 288 175 288 175 311.5 151.5 c 128,-1,33
 335 128 335 128 368 128 c 256,23,24
640 480 m 1,34,-1
 736 480 l 1,35,-1
 736 576 l 1,36,-1
 640 576 l 1,37,-1
 640 480 l 1,34,-1
EndSplineSet
EndChar

StartChar: uni308C
Encoding: 12428 12428 107
Width: 1024
Flags: W
LayerCount: 2
Fore
SplineSet
128 768 m 1,0,-1
 381 730 l 1,1,-1
 357 572 l 1,2,-1
 104 610 l 1,3,-1
 128 768 l 1,0,-1
896 768 m 1,4,-1
 919 610 l 1,5,-1
 666 572 l 1,6,-1
 643 731 l 1,7,-1
 896 768 l 1,4,-1
512 576 m 1,8,-1
 832 256 l 1,9,-1
 512 -64 l 1,10,-1
 192 256 l 1,11,-1
 512 576 l 1,8,-1
EndSplineSet
EndChar

StartChar: uni308D
Encoding: 12429 12429 108
Width: 1024
Flags: W
LayerCount: 2
Fore
SplineSet
96 576 m 1,0,-1
 96 768 l 1,1,-1
 928 768 l 1,2,-1
 928 576 l 1,3,-1
 576 576 l 1,4,-1
 640 448 l 1,5,-1
 928 448 l 1,6,-1
 928 256 l 1,7,-1
 736 256 l 1,8,-1
 800 128 l 1,9,-1
 928 128 l 1,10,-1
 928 -64 l 1,11,-1
 96 -64 l 1,12,-1
 96 128 l 1,13,-1
 448 128 l 1,14,-1
 384 256 l 1,15,-1
 96 256 l 1,16,-1
 96 448 l 1,17,-1
 288 448 l 1,18,-1
 224 576 l 1,19,-1
 96 576 l 1,0,-1
EndSplineSet
EndChar

StartChar: uni308F
Encoding: 12431 12431 109
Width: 1024
Flags: W
LayerCount: 2
Fore
SplineSet
128 768 m 1,0,-1
 480 768 l 2,1,2
 654 766 654 766 774 646 c 128,-1,3
 894 526 894 526 896 352 c 0,4,5
 894 178 894 178 774 58 c 128,-1,6
 654 -62 654 -62 480 -64 c 2,7,-1
 128 -64 l 1,8,-1
 128 352 l 1,9,-1
 128 768 l 1,0,-1
512 480 m 0,10,11
 458 479 458 479 421.5 442.5 c 128,-1,12
 385 406 385 406 384 352 c 0,13,14
 385 298 385 298 421.5 261.5 c 128,-1,15
 458 225 458 225 512 224 c 0,16,17
 566 225 566 225 602.5 261.5 c 128,-1,18
 639 298 639 298 640 352 c 0,19,20
 639 406 639 406 602.5 442.5 c 128,-1,21
 566 479 566 479 512 480 c 0,10,11
EndSplineSet
EndChar

StartChar: uni3092
Encoding: 12434 12434 110
Width: 1024
Flags: W
LayerCount: 2
Fore
SplineSet
512 -64 m 1,0,-1
 439 83 l 1,1,-1
 334 -64 l 1,2,-1
 98 -64 l 1,3,-1
 342 277 l 1,4,-1
 96 768 l 1,5,-1
 333 768 l 1,6,-1
 512 768 l 1,7,-1
 586 620 l 1,8,-1
 692 768 l 1,9,-1
 928 768 l 1,10,-1
 683 425 l 1,11,-1
 926 -59 l 1,12,-1
 929 -64 l 1,13,-1
 928 -64 l 1,14,-1
 693 -64 l 1,15,-1
 512 -64 l 1,0,-1
EndSplineSet
EndChar

StartChar: uni3093
Encoding: 12435 12435 111
Width: 1024
Flags: W
LayerCount: 2
Fore
SplineSet
384 832 m 0,0,1
 438 831 438 831 474.5 794.5 c 128,-1,2
 511 758 511 758 512 704 c 0,3,4
 511 650 511 650 474.5 613.5 c 128,-1,5
 438 577 438 577 384 576 c 0,6,7
 330 577 330 577 293.5 613.5 c 128,-1,8
 257 650 257 650 256 704 c 0,9,10
 257 758 257 758 293.5 794.5 c 128,-1,11
 330 831 330 831 384 832 c 0,0,1
576 512 m 1,12,-1
 576 768 l 1,13,-1
 768 768 l 1,14,-1
 768 512 l 1,15,-1
 896 512 l 1,16,-1
 896 320 l 1,17,-1
 768 320 l 1,18,-1
 768 -128 l 1,19,-1
 128 512 l 1,20,-1
 576 512 l 1,12,-1
EndSplineSet
EndChar

StartChar: uni5915
Encoding: 22805 22805 112
Width: 1024
Flags: W
LayerCount: 2
Fore
SplineSet
208 160 m 256,0,1
 208 200 208 200 236 228 c 128,-1,2
 264 256 264 256 304 256 c 256,3,4
 344 256 344 256 372 228 c 128,-1,5
 400 200 400 200 400 160 c 256,6,7
 400 120 400 120 372 92 c 128,-1,8
 344 64 344 64 304 64 c 256,9,10
 264 64 264 64 236 92 c 128,-1,11
 208 120 208 120 208 160 c 256,0,1
624 160 m 256,12,13
 624 200 624 200 652 228 c 128,-1,14
 680 256 680 256 720 256 c 256,15,16
 760 256 760 256 788 228 c 128,-1,17
 816 200 816 200 816 160 c 256,18,19
 816 120 816 120 788 92 c 128,-1,20
 760 64 760 64 720 64 c 256,21,22
 680 64 680 64 652 92 c 128,-1,23
 624 120 624 120 624 160 c 256,12,13
224 640 m 1,24,-1
 384 640 l 1,25,26
 384 587 384 587 421 550 c 0,27,28
 459 512 459 512 512 512 c 256,29,30
 565 512 565 512 602.5 549.5 c 128,-1,31
 640 587 640 587 640 640 c 1,32,-1
 800 640 l 1,33,34
 800 520 800 520 716 436 c 256,35,36
 632 352 632 352 512 352 c 256,37,38
 392 352 392 352 308 436 c 128,-1,39
 224 520 224 520 224 640 c 1,24,-1
EndSplineSet
EndChar

StartChar: uni591C
Encoding: 22812 22812 113
Width: 1024
Flags: W
LayerCount: 2
Fore
SplineSet
208 160 m 256,0,1
 208 200 208 200 236 228 c 128,-1,2
 264 256 264 256 304 256 c 256,3,4
 344 256 344 256 372 228 c 128,-1,5
 400 200 400 200 400 160 c 256,6,7
 400 120 400 120 372 92 c 128,-1,8
 344 64 344 64 304 64 c 256,9,10
 264 64 264 64 236 92 c 128,-1,11
 208 120 208 120 208 160 c 256,0,1
624 160 m 256,12,13
 624 200 624 200 652 228 c 128,-1,14
 680 256 680 256 720 256 c 256,15,16
 760 256 760 256 788 228 c 128,-1,17
 816 200 816 200 816 160 c 256,18,19
 816 120 816 120 788 92 c 128,-1,20
 760 64 760 64 720 64 c 256,21,22
 680 64 680 64 652 92 c 128,-1,23
 624 120 624 120 624 160 c 256,12,13
224 352 m 1,24,-1
 224 640 l 1,25,-1
 384 640 l 1,26,-1
 384 352 l 1,27,-1
 224 352 l 1,24,-1
640 352 m 1,28,-1
 640 640 l 1,29,-1
 800 640 l 1,30,-1
 800 352 l 1,31,-1
 640 352 l 1,28,-1
EndSplineSet
EndChar

StartChar: uni663C
Encoding: 26172 26172 114
Width: 1024
Flags: W
LayerCount: 2
Fore
SplineSet
224 64 m 1,0,-1
 224 352 l 1,1,-1
 384 352 l 1,2,-1
 384 64 l 1,3,-1
 224 64 l 1,0,-1
640 64 m 1,4,-1
 640 352 l 1,5,-1
 800 352 l 1,6,-1
 800 64 l 1,7,-1
 640 64 l 1,4,-1
208 544 m 256,8,9
 208 584 208 584 236 612 c 128,-1,10
 264 640 264 640 304 640 c 256,11,12
 344 640 344 640 372 612 c 128,-1,13
 400 584 400 584 400 544 c 256,14,15
 400 504 400 504 372 476 c 128,-1,16
 344 448 344 448 304 448 c 256,17,18
 264 448 264 448 236 476 c 128,-1,19
 208 504 208 504 208 544 c 256,8,9
624 544 m 256,20,21
 624 584 624 584 652 612 c 128,-1,22
 680 640 680 640 720 640 c 256,23,24
 760 640 760 640 788 612 c 128,-1,25
 816 584 816 584 816 544 c 256,26,27
 816 504 816 504 788 476 c 128,-1,28
 760 448 760 448 720 448 c 256,29,30
 680 448 680 448 652 476 c 128,-1,31
 624 504 624 504 624 544 c 256,20,21
EndSplineSet
EndChar

StartChar: uni671D
Encoding: 26397 26397 115
Width: 1024
Flags: W
LayerCount: 2
Fore
SplineSet
256 352 m 1,0,-1
 416 352 l 1,1,2
 416 299 416 299 453 262 c 0,3,4
 491 224 491 224 544 224 c 256,5,6
 597 224 597 224 634.5 261.5 c 128,-1,7
 672 299 672 299 672 352 c 1,8,-1
 832 352 l 1,9,10
 832 232 832 232 748 148 c 256,11,12
 664 64 664 64 544 64 c 256,13,14
 424 64 424 64 340 148 c 128,-1,15
 256 232 256 232 256 352 c 1,0,-1
240 544 m 256,16,17
 240 584 240 584 268 612 c 128,-1,18
 296 640 296 640 336 640 c 256,19,20
 376 640 376 640 404 612 c 128,-1,21
 432 584 432 584 432 544 c 256,22,23
 432 504 432 504 404 476 c 128,-1,24
 376 448 376 448 336 448 c 256,25,26
 296 448 296 448 268 476 c 128,-1,27
 240 504 240 504 240 544 c 256,16,17
656 544 m 256,28,29
 656 584 656 584 684 612 c 128,-1,30
 712 640 712 640 752 640 c 256,31,32
 792 640 792 640 820 612 c 128,-1,33
 848 584 848 584 848 544 c 256,34,35
 848 504 848 504 820 476 c 128,-1,36
 792 448 792 448 752 448 c 256,37,38
 712 448 712 448 684 476 c 128,-1,39
 656 504 656 504 656 544 c 256,28,29
EndSplineSet
EndChar

StartChar: uni70B9
Encoding: 28857 28857 116
Width: 1024
Flags: W
LayerCount: 2
Fore
SplineSet
512 512 m 1,0,-1
 672 352 l 1,1,-1
 512 192 l 1,2,-1
 352 352 l 1,3,-1
 512 512 l 1,0,-1
EndSplineSet
EndChar

StartChar: uniFF01
Encoding: 65281 65281 117
Width: 1024
Flags: W
LayerCount: 2
Fore
SplineSet
96 768 m 1,0,-1
 928 768 l 1,1,-1
 928 576 l 1,2,3
 834 575 834 575 769.5 510.5 c 128,-1,4
 705 446 705 446 704 352 c 0,5,6
 705 258 705 258 769.5 193.5 c 128,-1,7
 834 129 834 129 928 128 c 1,8,-1
 928 -64 l 1,9,-1
 96 -64 l 1,10,-1
 96 128 l 1,11,12
 190 129 190 129 254.5 193.5 c 128,-1,13
 319 258 319 258 320 352 c 0,14,15
 319 446 319 446 254.5 510.5 c 128,-1,16
 190 575 190 575 96 576 c 1,17,-1
 96 768 l 1,0,-1
512 512 m 1,18,-1
 352 352 l 1,19,-1
 512 192 l 1,20,-1
 672 352 l 1,21,-1
 512 512 l 1,18,-1
EndSplineSet
EndChar

StartChar: uniFF1A
Encoding: 65306 65306 118
Width: 1024
Flags: W
LayerCount: 2
Fore
SplineSet
512 768 m 1,0,-1
 672 608 l 1,1,-1
 512 448 l 1,2,-1
 352 608 l 1,3,-1
 512 768 l 1,0,-1
512 256 m 1,4,-1
 672 96 l 1,5,-1
 512 -64 l 1,6,-1
 352 96 l 1,7,-1
 512 256 l 1,4,-1
EndSplineSet
EndChar
